<svg width="33" height="46" viewBox="0 0 33 46" fill="none" xmlns="http://www.w3.org/2000/svg">
<path d="M6.89648 38.0312V39.1973H2.36719V38.0312H6.89648ZM2.73047 34.4688V43H1.25977V34.4688H2.73047ZM8.02734 34.4688V43H6.5625V34.4688H8.02734ZM9.36914 39.9004V39.7656C9.36914 39.3086 9.43555 38.8848 9.56836 38.4941C9.70117 38.0996 9.89258 37.7578 10.1426 37.4688C10.3965 37.1758 10.7051 36.9492 11.0684 36.7891C11.4355 36.625 11.8496 36.543 12.3105 36.543C12.7754 36.543 13.1895 36.625 13.5527 36.7891C13.9199 36.9492 14.2305 37.1758 14.4844 37.4688C14.7383 37.7578 14.9316 38.0996 15.0645 38.4941C15.1973 38.8848 15.2637 39.3086 15.2637 39.7656V39.9004C15.2637 40.3574 15.1973 40.7812 15.0645 41.1719C14.9316 41.5625 14.7383 41.9043 14.4844 42.1973C14.2305 42.4863 13.9219 42.7129 13.5586 42.877C13.1953 43.0371 12.7832 43.1172 12.3223 43.1172C11.8574 43.1172 11.4414 43.0371 11.0742 42.877C10.7109 42.7129 10.4023 42.4863 10.1484 42.1973C9.89453 41.9043 9.70117 41.5625 9.56836 41.1719C9.43555 40.7812 9.36914 40.3574 9.36914 39.9004ZM10.7812 39.7656V39.9004C10.7812 40.1855 10.8105 40.4551 10.8691 40.709C10.9277 40.9629 11.0195 41.1855 11.1445 41.377C11.2695 41.5684 11.4297 41.7188 11.625 41.8281C11.8203 41.9375 12.0527 41.9922 12.3223 41.9922C12.584 41.9922 12.8105 41.9375 13.002 41.8281C13.1973 41.7188 13.3574 41.5684 13.4824 41.377C13.6074 41.1855 13.6992 40.9629 13.7578 40.709C13.8203 40.4551 13.8516 40.1855 13.8516 39.9004V39.7656C13.8516 39.4844 13.8203 39.2188 13.7578 38.9688C13.6992 38.7148 13.6055 38.4902 13.4766 38.2949C13.3516 38.0996 13.1914 37.9473 12.9961 37.8379C12.8047 37.7246 12.5762 37.668 12.3105 37.668C12.0449 37.668 11.8145 37.7246 11.6191 37.8379C11.4277 37.9473 11.2695 38.0996 11.1445 38.2949C11.0195 38.4902 10.9277 38.7148 10.8691 38.9688C10.8105 39.2188 10.7812 39.4844 10.7812 39.7656ZM17.8594 37.9492V43H16.4473V36.6602H17.7773L17.8594 37.9492ZM17.6309 39.5957L17.1504 39.5898C17.1504 39.1523 17.2051 38.748 17.3145 38.377C17.4238 38.0059 17.584 37.6836 17.7949 37.4102C18.0059 37.1328 18.2676 36.9199 18.5801 36.7715C18.8965 36.6191 19.2617 36.543 19.6758 36.543C19.9648 36.543 20.2285 36.5859 20.4668 36.6719C20.709 36.7539 20.918 36.8848 21.0938 37.0645C21.2734 37.2441 21.4102 37.4746 21.5039 37.7559C21.6016 38.0371 21.6504 38.377 21.6504 38.7754V43H20.2383V38.8984C20.2383 38.5898 20.1914 38.3477 20.0977 38.1719C20.0078 37.9961 19.877 37.8711 19.7051 37.7969C19.5371 37.7188 19.3359 37.6797 19.1016 37.6797C18.8359 37.6797 18.6094 37.7305 18.4219 37.832C18.2383 37.9336 18.0879 38.0723 17.9707 38.248C17.8535 38.4238 17.7676 38.627 17.7129 38.8574C17.6582 39.0879 17.6309 39.334 17.6309 39.5957ZM21.5625 39.2207L20.9004 39.3672C20.9004 38.9844 20.9531 38.623 21.0586 38.2832C21.168 37.9395 21.3262 37.6387 21.5332 37.3809C21.7441 37.1191 22.0039 36.9141 22.3125 36.7656C22.6211 36.6172 22.9746 36.543 23.373 36.543C23.6973 36.543 23.9863 36.5879 24.2402 36.6777C24.498 36.7637 24.7168 36.9004 24.8965 37.0879C25.0762 37.2754 25.2129 37.5195 25.3066 37.8203C25.4004 38.1172 25.4473 38.4766 25.4473 38.8984V43H24.0293V38.8926C24.0293 38.5723 23.9824 38.3242 23.8887 38.1484C23.7988 37.9727 23.6699 37.8516 23.502 37.7852C23.334 37.7148 23.1328 37.6797 22.8984 37.6797C22.6797 37.6797 22.4863 37.7207 22.3184 37.8027C22.1543 37.8809 22.0156 37.9922 21.9023 38.1367C21.7891 38.2773 21.7031 38.4395 21.6445 38.623C21.5898 38.8066 21.5625 39.0059 21.5625 39.2207ZM29.6953 43.1172C29.2266 43.1172 28.8027 43.041 28.4238 42.8887C28.0488 42.7324 27.7285 42.5156 27.4629 42.2383C27.2012 41.9609 27 41.6348 26.8594 41.2598C26.7188 40.8848 26.6484 40.4805 26.6484 40.0469V39.8125C26.6484 39.3164 26.7207 38.8672 26.8652 38.4648C27.0098 38.0625 27.2109 37.7188 27.4688 37.4336C27.7266 37.1445 28.0312 36.9238 28.3828 36.7715C28.7344 36.6191 29.1152 36.543 29.5254 36.543C29.9785 36.543 30.375 36.6191 30.7148 36.7715C31.0547 36.9238 31.3359 37.1387 31.5586 37.416C31.7852 37.6895 31.9531 38.0156 32.0625 38.3945C32.1758 38.7734 32.2324 39.1914 32.2324 39.6484V40.252H27.334V39.2383H30.8379V39.127C30.8301 38.873 30.7793 38.6348 30.6855 38.4121C30.5957 38.1895 30.457 38.0098 30.2695 37.873C30.082 37.7363 29.832 37.668 29.5195 37.668C29.2852 37.668 29.0762 37.7188 28.8926 37.8203C28.7129 37.918 28.5625 38.0605 28.4414 38.248C28.3203 38.4355 28.2266 38.6621 28.1602 38.9277C28.0977 39.1895 28.0664 39.4844 28.0664 39.8125V40.0469C28.0664 40.3242 28.1035 40.582 28.1777 40.8203C28.2559 41.0547 28.3691 41.2598 28.5176 41.4355C28.666 41.6113 28.8457 41.75 29.0566 41.8516C29.2676 41.9492 29.5078 41.998 29.7773 41.998C30.1172 41.998 30.4199 41.9297 30.6855 41.793C30.9512 41.6562 31.1816 41.4629 31.377 41.2129L32.1211 41.9336C31.9844 42.1328 31.8066 42.3242 31.5879 42.5078C31.3691 42.6875 31.1016 42.834 30.7852 42.9473C30.4727 43.0605 30.1094 43.1172 29.6953 43.1172Z" fill="#67686D"/>
<path d="M22.5246 22H20.7818H13.3488H11.606C9.86861 22 8.46021 20.4607 8.46021 18.5618V9.84736C8.4669 9.09967 8.78834 8.39702 9.3316 7.94256L15.2658 2.6853C16.31 1.77157 17.7944 1.77157 18.8386 2.6853L24.799 7.93303C25.3402 8.38935 25.6611 9.09083 25.6704 9.83784V18.5618C25.6704 20.4607 24.2619 22 22.5246 22Z" stroke="#67686D" stroke-width="2" stroke-linecap="round" stroke-linejoin="round"/>
</svg>
